<svg width="21" height="11" viewBox="0 0 21 11" fill="none" xmlns="http://www.w3.org/2000/svg">
<path d="M10.2103 2.50495C10.3736 2.50495 10.4825 2.39604 10.4825 2.23267V0.272277C10.4825 0.108911 10.3736 0 10.2103 0C10.0469 0 9.93799 0.108911 9.93799 0.272277V2.23267C9.93799 2.36881 10.0469 2.50495 10.2103 2.50495Z" fill="white"/>
<path d="M7.26989 2.01484L7.59662 2.80444C7.65108 2.91336 7.73276 2.96781 7.84167 2.96781C7.8689 2.96781 7.92336 2.96781 7.95058 2.94058C8.08672 2.88613 8.16841 2.72276 8.08672 2.58662L7.75999 1.82425C7.70553 1.68811 7.54217 1.60642 7.40603 1.68811C7.26989 1.71534 7.21544 1.8787 7.26989 2.01484Z" fill="white"/>
<path d="M7.07941 1.14355C7.16109 1.14355 7.21554 1.11633 7.27 1.06187C7.32446 1.00741 7.35168 0.952959 7.35168 0.871276C7.35168 0.789593 7.32446 0.735138 7.27 0.680682C7.16109 0.571771 6.99772 0.571771 6.88881 0.680682C6.83436 0.735138 6.80713 0.789593 6.80713 0.871276C6.80713 0.952959 6.83436 1.00741 6.88881 1.06187C6.94327 1.11633 7.02495 1.14355 7.07941 1.14355Z" fill="white"/>
<path d="M15.683 6.15347C15.7374 6.26238 15.8191 6.31683 15.928 6.31683C15.9553 6.31683 16.0097 6.31683 16.0369 6.28961L16.8265 5.96287C16.9627 5.90842 17.0444 5.74505 16.9627 5.60891C16.9082 5.47278 16.7449 5.39109 16.6087 5.47278L15.8191 5.79951C15.683 5.85396 15.6285 6.01733 15.683 6.15347Z" fill="white"/>
<path d="M17.7523 5.58166C17.8339 5.58166 17.8884 5.55444 17.9429 5.49998C17.9973 5.44552 18.0245 5.36384 18.0245 5.30939C18.0245 5.2277 17.9973 5.17325 17.9429 5.11879C17.8339 5.00988 17.6706 5.00988 17.5617 5.11879C17.5072 5.17325 17.48 5.25493 17.48 5.30939C17.48 5.39107 17.5072 5.44552 17.5617 5.49998C17.6161 5.55444 17.6978 5.58166 17.7523 5.58166Z" fill="white"/>
<path d="M12.4705 2.94059C12.4977 2.96781 12.5522 2.96781 12.5794 2.96781C12.6883 2.96781 12.7972 2.91336 12.8244 2.80445L13.1512 2.01484C13.2056 1.8787 13.1512 1.71534 13.015 1.66088C12.8789 1.60643 12.7155 1.66088 12.6611 1.79702L12.3343 2.58662C12.2799 2.74999 12.3343 2.88613 12.4705 2.94059Z" fill="white"/>
<path d="M13.3416 1.14355C13.4233 1.14355 13.4778 1.11633 13.5322 1.06187C13.5867 1.00741 13.6139 0.952959 13.6139 0.871276C13.6139 0.789593 13.5867 0.735138 13.5322 0.680682C13.4233 0.571771 13.2599 0.571771 13.151 0.680682C13.0966 0.735138 13.0693 0.789593 13.0693 0.871276C13.0693 0.952959 13.0966 1.00741 13.151 1.06187C13.2055 1.11633 13.2599 1.14355 13.3416 1.14355Z" fill="white"/>
<path d="M3.59402 5.99009L4.38362 6.31683C4.41085 6.34405 4.4653 6.34405 4.49253 6.34405C4.60144 6.34405 4.71035 6.2896 4.73758 6.18069C4.79204 6.04455 4.73758 5.88118 4.60144 5.82673L3.81184 5.49999C3.6757 5.44554 3.51233 5.49999 3.45788 5.63613C3.40342 5.77227 3.45788 5.93564 3.59402 5.99009Z" fill="white"/>
<path d="M2.66827 5.58166C2.74996 5.58166 2.80441 5.55444 2.85887 5.49998C2.91332 5.44552 2.94055 5.39107 2.94055 5.30939C2.94055 5.2277 2.91332 5.17325 2.85887 5.11879C2.74996 5.00988 2.55936 5.00988 2.47768 5.11879C2.42322 5.17325 2.396 5.2277 2.396 5.30939C2.396 5.39107 2.42322 5.44552 2.47768 5.49998C2.53214 5.55444 2.58659 5.58166 2.66827 5.58166Z" fill="white"/>
<path d="M14.5941 4.32916C14.6757 4.32916 14.7302 4.30194 14.7846 4.24748L16.1733 2.85887C16.2822 2.74996 16.2822 2.58659 16.1733 2.47768C16.0644 2.36877 15.901 2.36877 15.7921 2.47768L14.4035 3.86629C14.2945 3.9752 14.2945 4.13857 14.4035 4.24748C14.4579 4.30194 14.5124 4.32916 14.5941 4.32916Z" fill="white"/>
<path d="M5.63631 4.24748C5.69077 4.30194 5.77245 4.32916 5.82691 4.32916C5.88136 4.32916 5.96304 4.30194 6.0175 4.24748C6.12641 4.13857 6.12641 3.9752 6.0175 3.86629L4.62889 2.47768C4.51998 2.36877 4.35661 2.36877 4.2477 2.47768C4.13879 2.58659 4.13879 2.74996 4.2477 2.85887L5.63631 4.24748Z" fill="white"/>
<path d="M20.0124 8.27727H15.5198C15.4381 5.41835 13.0965 3.13123 10.2104 3.13123C7.32426 3.13123 4.98267 5.41835 4.90099 8.27727H0.408416C0.190594 8.27727 0 8.46786 0 8.68568C0 8.9035 0.190594 9.0941 0.408416 9.0941H20.0124C20.2302 9.0941 20.4208 8.9035 20.4208 8.68568C20.4208 8.46786 20.2302 8.27727 20.0124 8.27727ZM10.2104 3.94806C12.6337 3.94806 14.6213 5.88123 14.703 8.27727H5.71782C5.79951 5.88123 7.78713 3.94806 10.2104 3.94806Z" fill="white"/>
<path d="M17.2895 10.1831H3.13107C2.91325 10.1831 2.72266 10.3737 2.72266 10.5915C2.72266 10.8093 2.91325 10.9999 3.13107 10.9999H17.2895C17.5073 10.9999 17.6979 10.8093 17.6979 10.5915C17.6979 10.3737 17.5073 10.1831 17.2895 10.1831Z" fill="white"/>
</svg>
