<svg width="16" height="20" viewBox="0 0 16 20" fill="none" xmlns="http://www.w3.org/2000/svg">
<path fill-rule="evenodd" clip-rule="evenodd" d="M7.98902 10.0329L5.70772 11.5398C5.6227 11.596 5.50782 11.5727 5.45156 11.4877C5.39529 11.4027 5.41866 11.2877 5.50369 11.2315C5.81531 11.0254 6.12823 10.8213 6.44093 10.6168C6.92385 10.3011 7.40879 9.98591 7.88419 9.65903C7.94714 9.61575 8.03021 9.61558 8.09335 9.65869C8.88705 10.1829 9.68094 10.7068 10.4743 11.2315C10.5594 11.2877 10.5827 11.4027 10.5265 11.4877C10.4702 11.5727 10.3553 11.596 10.2703 11.5398L7.98902 10.0329V10.0329Z" fill="white"/>
<path d="M11.7983 8.69193C11.7912 8.69026 9.70643 8.18344 8.0926 9.79246C8.06998 9.81816 8.03685 9.83438 7.99992 9.83438C7.93175 9.83438 7.87649 9.77912 7.87649 9.71095V5.87109C7.87621 5.85661 7.87849 5.84184 7.88364 5.82739L7.88385 5.82746C8.3178 4.60919 10.0217 4.49918 10.1709 4.49182C10.2248 4.48498 10.2787 4.51447 10.3005 4.56704L10.3002 4.56752L11.9362 8.51565C11.949 8.54073 11.9534 8.57031 11.9465 8.59991C11.931 8.6663 11.8647 8.70756 11.7983 8.69208L11.7983 8.69192L11.7983 8.69193ZM8.32605 6.07805V8.57598C8.32605 8.64415 8.38131 8.69941 8.44947 8.69941C8.4864 8.69941 8.51954 8.68319 8.54216 8.65749C9.57514 7.62966 10.9076 7.95391 10.9115 7.95481L10.9115 7.95497C10.9779 7.97042 11.0442 7.92914 11.0597 7.86274C11.0666 7.83315 11.0622 7.80357 11.0493 7.7785L9.98611 5.21264L9.98634 5.21215C9.96452 5.15947 9.91042 5.12995 9.85645 5.13697C9.73458 5.1435 8.6219 5.22477 8.33341 6.03443L8.3332 6.03435C8.32805 6.04881 8.32578 6.06357 8.32605 6.07805L8.32605 6.07805Z" fill="white"/>
<path d="M7.90745 9.79246C6.29363 8.18343 4.20886 8.69025 4.20175 8.69192L4.20179 8.69208C4.1354 8.70756 4.06902 8.6663 4.05354 8.59991C4.04664 8.57031 4.05102 8.54073 4.06388 8.51565L5.69984 4.56752L5.69961 4.56704C5.72139 4.51447 5.77529 4.48498 5.82914 4.49182C5.97834 4.49918 7.68227 4.60919 8.11621 5.82746L8.11642 5.82739C8.12157 5.84184 8.12385 5.85661 8.12357 5.87109V9.71095C8.12357 9.77912 8.06831 9.83438 8.00014 9.83438C7.96321 9.83438 7.93008 9.81816 7.90746 9.79246L7.90745 9.79246ZM7.67401 8.57598V6.07805C7.67428 6.06357 7.672 6.0488 7.66686 6.03435L7.66664 6.03443C7.37816 5.22477 6.26548 5.1435 6.1436 5.13697C6.08964 5.12995 6.03554 5.15947 6.01371 5.21215L6.01395 5.21264L4.95074 7.7785C4.93789 7.80357 4.9335 7.83315 4.94038 7.86274C4.95584 7.92913 5.0222 7.97042 5.0886 7.95497L5.08857 7.9548C5.09243 7.95391 6.42491 7.62966 7.4579 8.65749C7.48052 8.68319 7.51366 8.69941 7.55058 8.69941C7.61874 8.69941 7.67401 8.64415 7.67401 8.57598L7.67401 8.57598Z" fill="white"/>
<path d="M8.12357 0.072358L11.4641 2.001L11.4638 2.00142L14.8036 3.92963L14.928 4.00145V4.14274V8.00002V11.8573V11.9986L14.8036 12.0704L11.4638 13.9986L11.4641 13.999L8.12357 15.9277L8.00014 15.9989L7.87671 15.9277L4.53621 13.999L4.53645 13.9986L1.19666 12.0704L1.07227 11.9986V11.8573V8.00002V4.14274V4.00145L1.19666 3.92963L4.53645 2.00142L4.53621 2.001L7.87671 0.072358L8.00014 0.00109863L8.12357 0.072358V0.072358ZM8.00013 0.856261L5.54902 2.27142L5.54926 2.27184L1.81287 4.42903V11.571L5.54926 13.7282L5.54902 13.7286L8.00015 15.1438L10.4513 13.7287L10.451 13.7282L14.1874 11.571V4.42903L10.451 2.27184L10.4513 2.27142L8.00013 0.856261V0.856261Z" fill="white"/>
</svg>
