<svg width="20" height="14" viewBox="0 0 20 14" fill="none" xmlns="http://www.w3.org/2000/svg">
<path d="M15.5531 12.569L15.4279 12.5437C15.4266 12.5437 15.4248 12.5431 15.4238 12.5431C15.3985 12.5382 15.3693 12.5328 15.3367 12.5269C15.2642 12.5134 15.1748 12.4967 15.069 12.4796C14.8079 12.4368 14.3749 12.3727 13.8025 12.3128C13.2486 12.2542 12.6309 12.2077 12.0161 12.1775C11.8863 12.1698 11.7507 12.1649 11.6203 12.1599L11.5193 12.1563C11.3489 12.1491 11.1767 12.1437 11.0086 12.1406C10.7191 12.1321 10.4191 12.1303 10.1291 12.1284L9.97188 12.1279C9.97188 12.1279 9.97136 12.1279 9.97059 12.1279C9.97059 12.1279 9.97007 12.1279 9.9693 12.1279L9.84845 12.1284C9.54686 12.1303 9.23494 12.1326 8.93077 12.1411C8.75131 12.1442 8.57289 12.1507 8.42183 12.1568L8.4128 12.1574C8.25193 12.1628 8.08513 12.1687 7.92374 12.1785C7.31023 12.2087 6.69233 12.2552 6.13847 12.3138C5.56601 12.3737 5.13376 12.4373 4.87142 12.4801C4.76736 12.4964 4.67802 12.5134 4.60598 12.5266C4.57267 12.5325 4.54323 12.5387 4.51767 12.5429C4.51586 12.5429 4.51457 12.5434 4.51277 12.5434L4.38831 12.5687C4.30361 12.5857 4.24268 12.6601 4.24268 12.7463C4.24268 12.8326 4.30361 12.9072 4.38831 12.924L4.51277 12.9493C4.51457 12.9493 4.51586 12.9498 4.51767 12.9498C4.54298 12.954 4.57267 12.9601 4.60598 12.9661C4.67802 12.9795 4.76736 12.9963 4.87245 13.0126C5.13351 13.0554 5.56575 13.1189 6.13821 13.1789C6.69207 13.2375 7.30972 13.2839 7.92529 13.3142C8.08487 13.3237 8.25167 13.3299 8.41306 13.3353L8.42209 13.3358C8.57263 13.3418 8.75157 13.3485 8.93284 13.3516C9.23443 13.3601 9.54635 13.3624 9.84871 13.3642L9.96904 13.3648L10.1286 13.3642C10.4181 13.3624 10.7186 13.3606 11.0099 13.3521C11.1762 13.349 11.3484 13.3436 11.5196 13.3364L11.62 13.3327C11.7507 13.3278 11.886 13.3232 12.018 13.3152C12.6309 13.285 13.2488 13.2385 13.8025 13.1799C14.3749 13.12 14.8077 13.0559 15.0695 13.0131C15.1746 12.996 15.2642 12.9793 15.3367 12.9658C15.3693 12.9599 15.3985 12.9537 15.4238 12.9496C15.4251 12.9496 15.4269 12.949 15.4279 12.949L15.5531 12.9237C15.6378 12.9067 15.6982 12.8323 15.6982 12.7461C15.6982 12.6598 15.6378 12.5857 15.5531 12.569ZM15.3923 12.7719C15.3112 12.7859 15.1921 12.8106 15.0403 12.8347C14.7369 12.8842 14.3034 12.9459 13.7836 13.0002C13.2638 13.0552 12.6568 13.1029 12.0068 13.135C11.8442 13.144 11.6792 13.1494 11.5119 13.1561C11.3451 13.1628 11.1757 13.1683 11.0052 13.1714C10.6636 13.1809 10.3174 13.1817 9.97033 13.184C9.62407 13.1817 9.27703 13.1804 8.93593 13.1706C8.76551 13.1675 8.59613 13.1616 8.42881 13.1548C8.26123 13.1489 8.09623 13.1427 7.93381 13.1337C7.28389 13.1016 6.67761 13.0534 6.15783 12.9989C5.63728 12.9444 5.20451 12.8835 4.90112 12.8339C4.74929 12.8096 4.63025 12.7856 4.54866 12.7711C4.46758 12.7549 4.4242 12.7463 4.4242 12.7463C4.4242 12.7463 4.46784 12.7378 4.54866 12.7216C4.63025 12.7071 4.74929 12.6828 4.90112 12.6588C5.20451 12.6092 5.63754 12.5483 6.15783 12.4938C6.67761 12.4393 7.28415 12.391 7.93381 12.359C8.09649 12.35 8.26148 12.3438 8.42881 12.3379C8.59639 12.3311 8.76551 12.3252 8.93593 12.3221C9.27677 12.3126 9.62381 12.3113 9.97033 12.3089C10.3174 12.3113 10.6636 12.312 11.0052 12.3216C11.1757 12.3247 11.3451 12.3301 11.5119 12.3368C11.6794 12.3435 11.8444 12.349 12.0068 12.358C12.6568 12.39 13.2636 12.4378 13.7836 12.4928C14.3034 12.5473 14.7369 12.609 15.0403 12.6583C15.1921 12.6826 15.3112 12.7074 15.3923 12.721C15.4733 12.7381 15.5167 12.7463 15.5167 12.7463C15.5167 12.7463 15.4733 12.7551 15.3923 12.7719Z" fill="white"/>
<path d="M19.8742 11.1048C19.8017 11.066 19.7286 11.0547 19.67 11.0462L19.656 11.0438C19.5876 11.0335 19.5212 11.0258 19.4712 11.0203C19.372 11.01 19.2638 11.0005 19.1295 10.9901C18.9676 10.9775 18.7874 10.9653 18.5963 10.9532L18.548 10.9501C18.2911 10.9325 18.0735 10.9194 17.8625 10.9083C17.3729 10.8799 19.397 10.8569 18.8057 10.8326L18.5326 10.8241L17.8682 10.8034C17.5779 10.7944 17.2841 10.7895 16.9735 10.7836L16.8648 10.7818C16.6321 10.7781 16.3974 10.7758 16.1648 10.7745C16.6466 9.82972 16.918 8.7597 16.918 7.62614C16.918 3.78989 13.8078 0.678955 9.97077 0.678955C6.13374 0.678955 3.02358 3.78989 3.02358 7.62614C3.02358 8.79404 3.312 9.89428 3.82145 10.8597C3.59164 10.8494 3.36493 10.8409 3.14132 10.8368C2.92132 10.8318 2.70133 10.8295 2.48598 10.8295C2.36798 10.8295 2.24972 10.8308 2.13404 10.8318C1.79604 10.8342 1.47017 10.8404 1.19647 10.8458C0.116111 10.8706 1.66461 10.9196 0.86854 10.9829C0.312352 11.0247 0.155875 11.0658 0.0905478 11.1249C0.0427786 11.1582 0.00946935 11.2114 0.00172299 11.2724C-0.00860548 11.3527 0.0283188 11.4288 0.0905478 11.4738C0.155875 11.5324 0.312352 11.5742 0.869057 11.6158C1.66461 11.6793 0.116111 11.7281 1.19595 11.7524C1.47043 11.7583 1.7963 11.7637 2.13481 11.7668C2.24972 11.7681 2.36823 11.7686 2.48598 11.7686C2.70107 11.7686 2.92184 11.7663 3.14132 11.7614C3.73366 11.75 4.34381 11.7113 4.98934 11.6708C5.09624 11.6641 5.2034 11.6568 5.31108 11.6501C5.69426 11.6277 6.07048 11.606 6.44824 11.5933C6.75784 11.5825 7.08732 11.577 7.45604 11.577H7.61148C8.3164 11.5783 9.07141 11.6031 9.98962 11.6555L10.8838 11.7033L11.1885 11.7196L11.7695 11.7444L11.7865 11.7457L12.133 11.756L12.3814 11.7632C13.0729 11.7808 13.8873 11.8001 14.6968 11.8133C15.0867 11.8205 15.4851 11.8247 15.8805 11.8247C16.2063 11.8247 16.5376 11.8216 16.8645 11.8169L16.9732 11.8146C17.2846 11.8092 17.5785 11.8038 17.8684 11.7947L18.0352 11.7898L18.8042 11.7655C19.3973 11.742 17.3732 11.7191 17.8646 11.6899C18.0737 11.6796 18.2914 11.6664 18.5488 11.6488L18.5966 11.6457C18.7877 11.6331 18.9676 11.6215 19.1311 11.6083L19.1698 11.6052L19.2024 11.6029C19.3286 11.5925 19.426 11.5835 19.5179 11.5732C19.5481 11.5696 19.5788 11.5646 19.6093 11.5605C19.6318 11.5569 19.6535 11.5538 19.6759 11.551C19.7381 11.5432 19.8102 11.5316 19.8809 11.4911C19.9576 11.4474 20.0013 11.3762 20 11.2959C19.9982 11.2161 19.953 11.1466 19.8742 11.1048ZM19.7908 11.3341C19.7485 11.3583 19.7002 11.3661 19.6524 11.372C19.6005 11.3787 19.5491 11.3878 19.4965 11.3937C19.3937 11.4051 19.2909 11.4144 19.1876 11.4226C19.1641 11.4244 19.1399 11.4262 19.1156 11.4281C18.9408 11.4425 18.7469 11.4547 18.5364 11.4686C18.3255 11.4825 18.097 11.497 17.8532 11.5097C17.366 11.5381 19.3981 11.5605 18.7983 11.5853C18.4985 11.5943 18.1858 11.6042 17.8625 11.6137C17.539 11.624 17.2048 11.6295 16.8609 11.6362C16.5417 11.6411 16.2141 11.6439 15.8797 11.6439C15.4947 11.6439 15.0999 11.6403 14.6984 11.6326C13.9488 11.6204 13.1739 11.6023 12.3861 11.5825C12.1896 11.577 11.992 11.5711 11.7937 11.5649C11.5954 11.5564 11.3966 11.5479 11.1978 11.5396C10.7994 11.5179 10.3991 11.4967 9.99969 11.4748C9.19923 11.4293 8.39955 11.3981 7.61252 11.3963H7.45604C7.1152 11.3963 6.7772 11.4004 6.4423 11.4126C6.05653 11.4257 5.67515 11.4477 5.30023 11.4699C4.55013 11.5164 3.82507 11.5672 3.13796 11.5804C2.91668 11.5853 2.69978 11.5876 2.48624 11.5876C2.36823 11.5876 2.25178 11.5871 2.1361 11.5858C1.81256 11.5835 1.50064 11.5773 1.20034 11.5714C0.000948186 11.5443 1.58327 11.4911 0.883258 11.4353C0.183246 11.3826 0.209842 11.3312 0.209842 11.3312C0.192283 11.3289 0.179631 11.3132 0.181955 11.2956C0.183762 11.2804 0.195898 11.269 0.209842 11.2672C0.209842 11.2672 0.183246 11.2163 0.883258 11.1639C1.58327 11.1076 0.000948186 11.0544 1.20034 11.0273C1.5009 11.0214 1.81282 11.016 2.1361 11.0134C2.25152 11.0121 2.36823 11.011 2.48624 11.011C2.69952 11.011 2.91668 11.0134 3.13796 11.0183C3.39488 11.0232 3.65671 11.0335 3.92319 11.0467C4.37041 11.0691 4.83054 11.0999 5.30023 11.1296C5.67515 11.1513 6.05653 11.1737 6.4423 11.1864C6.7772 11.1985 7.1152 11.2034 7.45604 11.2034C7.50794 11.2034 7.5601 11.2034 7.61252 11.2029C8.39955 11.2016 9.19949 11.1704 9.99969 11.1244C10.3994 11.1032 10.7994 11.0815 11.1978 11.0604C11.3966 11.0518 11.5957 11.0433 11.7937 11.0351C11.992 11.0291 12.1896 11.0229 12.3861 11.017C13.1739 10.9976 13.9488 10.9795 14.6984 10.9674C15.0999 10.9597 15.4944 10.956 15.8797 10.956C15.9432 10.956 16.0067 10.956 16.0695 10.9566C16.3385 10.9571 16.6022 10.9597 16.8609 10.9638C17.2048 10.9697 17.5392 10.9759 17.8625 10.9855C18.186 10.9958 18.4985 11.0054 18.7983 11.0144C19.3978 11.0387 17.366 11.0609 17.8532 11.0901C18.097 11.1022 18.3252 11.1167 18.5364 11.1311C18.7469 11.1451 18.9408 11.1572 19.1156 11.1717C19.2279 11.1794 19.34 11.1892 19.4518 11.2013C19.5109 11.2073 19.5698 11.2145 19.6284 11.2238C19.6834 11.2323 19.7397 11.239 19.7893 11.2649C19.8032 11.2726 19.8177 11.2842 19.8182 11.3C19.8182 11.3147 19.8042 11.3268 19.7908 11.3341Z" fill="white"/>
</svg>
