<svg width="18" height="23" viewBox="0 0 18 23" fill="none" xmlns="http://www.w3.org/2000/svg">
<path d="M14.4847 2.70375H13.2188V1.42285H12.375V2.70375H5.625V1.42285H4.78125V2.70375H3.516C2.35275 2.70375 1.40625 3.66138 1.40625 4.83832V14.656C1.40625 15.8329 2.35275 16.7905 3.516 16.7905H14.4847C15.648 16.7905 16.5945 15.8329 16.5945 14.656V6.97213V6.11845V4.83756C16.5938 3.66062 15.6473 2.70375 14.4847 2.70375ZM15.75 14.6552C15.75 15.3609 15.1823 15.9354 14.4847 15.9354H3.516C2.81775 15.9354 2.25 15.3609 2.25 14.6552V6.97213H15.75V14.6552ZM15.75 6.11845H2.25V4.83756C2.25 4.13109 2.81775 3.55666 3.516 3.55666H4.782V4.41034H5.625V3.55742H12.375V4.4111H13.2188V3.55742H14.4847C15.1823 3.55742 15.75 4.13109 15.75 4.83756V6.11845Z" fill="#FCF7EE"/>
<g clip-path="url(#clip0_17_1850)">
<rect x="5.82324" y="7.41174" width="8.47059" height="11.6471" fill="#163719"/>
<path d="M8.99997 12.1765C10.1677 12.1765 11.1176 11.2265 11.1176 10.0588C11.1176 8.8911 10.1677 7.94116 8.99997 7.94116C7.83227 7.94116 6.88232 8.8911 6.88232 10.0588C6.88232 11.2265 7.83227 12.1765 8.99997 12.1765ZM8.99997 8.99999C9.58391 8.99999 10.0588 9.47487 10.0588 10.0588C10.0588 10.6428 9.58391 11.1176 8.99997 11.1176C8.41603 11.1176 7.94115 10.6428 7.94115 10.0588C7.94115 9.47487 8.41603 8.99999 8.99997 8.99999Z" fill="#FCF7EE"/>
<path d="M14.1388 13.3903C14.3457 13.5972 14.3457 13.9321 14.1388 14.1389L12.0212 16.2566C11.9061 16.3722 11.7441 16.4269 11.5823 16.4078C11.4205 16.3879 11.2767 16.2943 11.193 16.1548L10.5881 15.1466V16.9411C10.5881 17.2335 10.3511 17.4705 10.0587 17.4705C9.76624 17.4705 9.52924 17.2335 9.52924 16.9411V13.8859C9.363 13.8135 9.18618 13.7646 9.00053 13.7646H8.47042C8.17853 13.7646 7.941 14.0022 7.941 14.294V17.9999C7.941 18.2918 8.17853 18.5293 8.47042 18.5293H11.9116C12.6413 18.5293 13.2351 19.1232 13.2351 19.8529C13.2351 20.5826 12.6413 21.1764 11.9116 21.1764H5.82336C5.53095 21.1764 5.29395 20.9394 5.29395 20.647C5.29395 20.3546 5.53095 20.1176 5.82336 20.1176H11.9116C12.0577 20.1176 12.1763 19.999 12.1763 19.8529C12.1763 19.7068 12.0577 19.5882 11.9116 19.5882H8.47042C7.59459 19.5882 6.88218 18.8758 6.88218 17.9999V14.294C6.88218 13.4182 7.59459 12.7058 8.47042 12.7058H8.99983C9.83771 12.7058 10.626 13.1519 11.0569 13.8702L11.7521 15.0285L13.3902 13.3903C13.5971 13.1835 13.932 13.1835 14.1388 13.3903Z" fill="#FCF7EE"/>
</g>
<defs>
<clipPath id="clip0_17_1850">
<rect width="9" height="13.2353" fill="white" transform="translate(5.29395 7.94116)"/>
</clipPath>
</defs>
</svg>
