<svg xmlns="http://www.w3.org/2000/svg" viewBox="0 0 1290 755"><g>
	<path d="M 710.674 11.162 C 709.243 11.964, 709 13.981, 709 25.082 C 709 39.985, 708.056 43.292, 702.561 47.625 C 694.618 53.888, 685.661 69.293, 683.989 79.566 C 682.276 90.094, 681.602 90.533, 666.596 90.901 C 657.208 91.131, 655 92.071, 655 95.835 C 655 99.417, 656.661 100.996, 660.450 101.016 C 662.127 101.025, 665.300 102.049, 667.500 103.291 C 670.896 105.209, 671.547 106.110, 671.810 109.263 C 672.232 114.332, 668.228 119.592, 662.842 121.043 C 656.042 122.874, 655.008 125.841, 655.004 143.550 C 655 160.436, 654.789 161, 648.500 161 C 643.955 161, 641.980 162.360, 642.039 165.450 C 642.075 167.384, 643.763 168.882, 651.792 174.106 L 655.084 176.247 654.664 205.374 C 654.433 221.393, 653.917 236.163, 653.519 238.196 C 653.018 240.747, 653.311 243.248, 654.463 246.263 C 657.103 253.177, 656.400 488.030, 653.731 490.698 C 652.039 492.389, 651.843 492.350, 649.231 489.788 C 643.983 484.639, 641.723 482.756, 622.825 467.787 C 602.351 451.569, 591.589 442.921, 582 434.980 C 580.625 433.842, 577.310 431.243, 574.634 429.205 C 570.406 425.986, 557.511 415.625, 552.964 411.794 C 545.346 405.375, 539.974 402, 537.374 402 C 535.244 402, 532.233 403.783, 526.466 408.459 C 509.090 422.548, 501.063 428.971, 481.169 444.703 C 477.137 447.891, 470.527 453.200, 466.481 456.500 C 462.434 459.800, 455.656 465.200, 451.419 468.500 C 441.873 475.934, 429.178 486.372, 426.465 489.016 C 424.015 491.404, 421.437 491.581, 420.607 489.418 C 419.376 486.211, 419.930 423.470, 421.200 422.200 C 421.860 421.540, 424.338 421, 426.707 421 C 430.042 421, 431.498 420.442, 433.165 418.525 C 434.348 417.164, 436.784 415.566, 438.578 414.974 C 445.285 412.761, 445.253 408, 438.533 408 C 435.100 408, 432 405.478, 432 402.686 C 432 399.036, 425.644 382.186, 422.448 377.363 C 418.798 371.856, 407.359 360, 405.696 360 C 405.142 360, 403.241 358.896, 401.472 357.547 C 399.703 356.197, 396.061 354.549, 393.378 353.883 C 387.004 352.302, 380.751 349.625, 379.372 347.887 C 377.985 346.138, 376.616 336.543, 376.499 327.755 C 376.397 320.018, 375.250 318.109, 371.682 319.735 C 369.438 320.757, 369.274 321.467, 368.628 332.898 C 368.252 339.543, 367.688 345.650, 367.373 346.470 C 366.498 348.751, 361.190 351.524, 354 353.456 C 350.425 354.417, 346.068 356.283, 344.317 357.602 C 342.566 358.921, 340.636 360, 340.027 360 C 338.171 360, 326.481 372.682, 322.720 378.774 C 319.518 383.962, 313 401.288, 313 404.612 C 313 405.353, 311.200 406.878, 309 408 C 306.800 409.122, 305 410.494, 305 411.048 C 305 411.601, 307.138 414.060, 309.750 416.510 C 313.948 420.448, 315.038 420.968, 319.128 420.983 C 325.730 421.007, 326.112 421.847, 325.783 435.642 C 325.509 447.111, 325.426 447.511, 323.230 447.822 C 321.954 448.003, 319.686 447.128, 318.049 445.822 C 314.646 443.108, 309.883 439.747, 305.093 436.681 C 303.219 435.481, 299.844 433.261, 297.593 431.746 C 295.342 430.232, 292.196 428.207, 290.602 427.246 C 289.009 426.286, 286.249 424.262, 284.470 422.750 C 282.691 421.238, 280.803 420, 280.273 420 C 279.743 420, 278.453 419.052, 277.405 417.894 C 276.357 416.735, 273.925 414.917, 272 413.853 C 268.235 411.773, 263.994 408.916, 257.250 403.917 C 253.276 400.971, 253 400.454, 253 395.960 C 253 390.476, 250.107 386.116, 245.092 384.038 C 240.945 382.321, 240.664 381.260, 240.049 365.011 C 239.551 351.863, 239.326 350.489, 237.620 350.163 C 234.526 349.571, 233.965 351.908, 234.135 364.699 C 234.320 378.627, 233.583 380.642, 227.086 383.956 C 222.383 386.356, 219 391.495, 219 396.241 C 219 399.902, 214.364 405.113, 207.430 409.246 C 205.818 410.207, 202.643 412.232, 200.374 413.746 C 198.105 415.261, 194.955 417.361, 193.374 418.414 C 187.293 422.463, 186.369 423.119, 182 426.491 C 179.525 428.402, 175.700 430.933, 173.500 432.117 C 171.300 433.300, 169.218 434.707, 168.874 435.243 C 168.293 436.147, 166.785 437.160, 158.072 442.500 C 156.277 443.600, 153.213 445.739, 151.262 447.254 C 145.588 451.659, 144.891 450.199, 145.222 434.604 L 145.500 421.500 151.348 420.872 C 155.080 420.471, 158.157 419.472, 159.848 418.113 C 161.307 416.941, 163.616 415.508, 164.980 414.929 C 170.037 412.780, 169.337 408, 163.965 408 C 159.485 408, 157.394 405.198, 156.594 398.126 C 155.785 390.979, 152.171 382.806, 146.368 375 C 142.006 369.133, 132.722 360, 131.120 360 C 130.588 360, 128.881 358.930, 127.327 357.622 C 125.772 356.314, 121.800 354.545, 118.500 353.692 C 110.975 351.745, 105.381 349.407, 104.318 347.765 C 103.868 347.069, 103.050 340.204, 102.500 332.509 C 101.609 320.047, 101.294 318.479, 99.620 318.160 C 96.628 317.592, 96.032 319.789, 96.002 331.500 C 95.986 337.550, 95.696 343.534, 95.357 344.799 C 94.628 347.520, 87.615 351.344, 79.456 353.469 C 71.581 355.521, 65.596 359.389, 57.331 367.769 C 48.237 376.991, 43.404 385.649, 41.372 396.361 C 39.623 405.585, 39.027 406.615, 34.923 407.517 C 31.116 408.353, 29.344 411.396, 31.612 413.202 C 32.509 413.916, 34.529 415.775, 36.101 417.333 C 38.189 419.404, 40.384 420.360, 44.254 420.886 C 47.167 421.281, 50.102 421.945, 50.775 422.361 C 51.726 422.949, 52 442.635, 52 510.488 C 52 588.581, 52.167 598.024, 53.571 599.429 C 54.997 600.854, 110.906 601, 653.871 601 C 1118.216 601, 1252.869 600.731, 1253.800 599.800 C 1255.652 597.948, 1255.529 362.106, 1253.674 359.569 C 1252.473 357.926, 1250.704 357.772, 1234.736 357.926 C 1217.759 358.089, 1216.944 358.005, 1212.186 355.594 C 1209.471 354.218, 1206.975 352.377, 1206.639 351.501 C 1205.829 349.390, 1199.362 346.750, 1196.908 347.529 C 1195.838 347.869, 1193.509 349.512, 1191.732 351.180 C 1185.342 357.179, 1182.203 357.954, 1164.199 357.978 L 1147.898 358 1146.449 354.532 C 1144.648 350.221, 1144.397 308.767, 1146.106 297.753 L 1147.213 290.622 1143.994 287.995 L 1140.774 285.367 1142.027 279.769 C 1143.320 273.991, 1142.277 266.243, 1139.804 263.263 C 1138.196 261.327, 1132.274 261.726, 1130.082 263.918 C 1127.548 266.452, 1126.460 275.282, 1127.985 280.944 C 1129.963 288.291, 1129.492 288.449, 1104.584 288.804 L 1083.234 289.108 1048.867 254.520 C 947.661 152.663, 951.029 155.940, 947.402 155.804 C 944.557 155.697, 943.376 156.429, 939.768 160.534 C 937.421 163.205, 908.388 192.614, 875.250 225.889 C 842.112 259.163, 815 286.714, 815 287.114 C 815 289.472, 774.223 290.260, 771.446 287.955 C 770.279 286.987, 770 283.148, 770 268.072 C 770 249.713, 770.043 249.330, 772.500 246 C 775.531 241.892, 775.723 237.188, 773 233.727 C 771.112 231.327, 771 229.670, 771 204.107 L 771 177.029 774.750 174.512 C 776.813 173.128, 780.188 170.866, 782.250 169.485 C 788.166 165.525, 786.570 161, 779.257 161 C 773.361 161, 773.014 160.033, 772.745 142.855 C 772.468 125.140, 772.149 124.316, 764.259 120.910 C 759.416 118.819, 756.009 114.071, 756.004 109.405 C 755.999 105.428, 758.302 103.408, 764.513 101.942 C 771.502 100.293, 772.456 99.672, 772.828 96.527 C 773.317 92.401, 772.464 92.066, 759.205 91.172 C 752.502 90.720, 746.738 90.072, 746.398 89.731 C 746.058 89.391, 745.159 86.155, 744.401 82.539 C 743.644 78.924, 742.380 74.961, 741.593 73.733 C 740.806 72.505, 739.634 69.495, 738.988 67.045 C 737.556 61.618, 735.321 58.438, 727.401 50.564 C 719.314 42.524, 716.810 35.839, 717.960 25.362 C 718.391 21.436, 719.047 17.732, 719.418 17.132 C 721.320 14.056, 714.195 9.192, 710.674 11.162 M 667.317 127.250 C 663.514 133.185, 664.073 138, 668.563 138 C 671.504 138, 672.112 136.972, 672.182 131.877 C 672.250 126.946, 669.306 124.146, 667.317 127.250 M 756.667 127.667 C 755.375 128.959, 756.015 135.873, 757.571 137.429 C 759.570 139.428, 760.314 139.402, 762.800 137.250 C 764.797 135.522, 764.799 135.448, 762.952 131.250 C 761.192 127.250, 758.575 125.758, 756.667 127.667 M 757.581 145.562 C 754.293 148.850, 756.748 159.383, 760.331 157.357 C 763.412 155.615, 765 153.452, 765 151 C 765 148.548, 763.412 146.385, 760.331 144.643 C 759.687 144.279, 758.450 144.693, 757.581 145.562 M 666.300 145.773 C 662.401 148.319, 663.361 155.551, 667.745 156.651 C 671.168 157.510, 672.165 155.974, 671.810 150.390 C 671.493 145.389, 669.475 143.698, 666.300 145.773 M 946.435 410.267 C 944.750 410.945, 940.604 412.567, 937.222 413.871 C 929.900 416.694, 916.120 428.848, 912.838 435.379 C 911.699 437.645, 910.115 440.243, 909.317 441.152 C 905.832 445.124, 903.988 467.167, 906.068 479.990 C 907.159 486.713, 907.398 487.304, 912.673 496.292 C 915.680 501.413, 930.351 515.989, 932.508 515.997 C 933.062 515.998, 935.696 517.161, 938.361 518.579 C 945.120 522.177, 958.139 523.745, 969.538 522.332 C 983.536 520.598, 983.745 517.767, 969.961 516.617 C 961.676 515.926, 953.089 512.649, 947.147 507.910 C 945.485 506.584, 942.969 504.689, 941.556 503.698 C 937.340 500.742, 931.237 491.642, 927.884 483.312 C 921.686 467.916, 924.220 449.442, 934.492 435.144 C 942.305 424.268, 956.098 415.922, 968.565 414.526 C 975.938 413.700, 978.060 412.661, 976.195 410.792 C 974.404 408.997, 950.634 408.579, 946.435 410.267 M 768.500 413.724 C 763.891 414.857, 764 413.596, 764 465.622 C 764 513.667, 764.054 515.054, 766 517 C 767.941 518.941, 769.328 519, 813.250 518.992 C 855.263 518.985, 858.959 518.845, 864.922 517.032 C 872.718 514.661, 878.656 509.328, 883.326 500.500 L 886.500 494.500 886.793 455.408 C 887.053 420.776, 886.906 416.167, 885.507 415.006 C 883.364 413.228, 869.936 412.429, 867.161 413.914 C 865.006 415.067, 865 415.170, 865 452.313 C 865 493.327, 865.216 491.849, 858.633 495.918 C 854.914 498.216, 844.445 498.843, 840.957 496.977 C 836.948 494.831, 836.778 493.061, 836.904 454.613 C 836.970 434.201, 836.682 417.005, 836.262 416.400 C 833.521 412.443, 820.460 411.540, 816.936 415.064 C 814.915 417.085, 814.876 417.924, 815.085 455.138 C 815.340 500.687, 816.386 497.288, 801.942 497.851 C 790.367 498.301, 788.471 497.791, 787.100 493.857 C 786.375 491.778, 786 477.853, 786 453.051 C 786 425.100, 785.691 415.091, 784.800 414.200 C 783.621 413.021, 772.662 412.701, 768.500 413.724 M 1015.691 414.212 C 1013.988 415.480, 1013.883 418.496, 1013.886 465.938 C 1013.888 509.136, 1014.100 516.529, 1015.372 517.801 C 1016.452 518.881, 1018.849 519.236, 1024.178 519.105 C 1036.041 518.813, 1035.252 521.809, 1035.062 477.809 C 1034.863 431.746, 1033.764 435, 1049.516 435 C 1059.099 435, 1060.005 435.169, 1061.443 437.223 C 1062.786 439.139, 1063 444.656, 1063 477.288 C 1063 501.462, 1063.374 515.830, 1064.035 517.066 C 1064.931 518.740, 1066.188 519, 1073.380 519 C 1085.934 519, 1085 522.345, 1085 477.394 C 1085 431.484, 1084.097 434.648, 1097.052 435.155 C 1106.706 435.533, 1110.822 437.427, 1112.127 442.090 C 1112.497 443.416, 1112.845 460.577, 1112.900 480.227 L 1113 515.954 1115.250 517.396 C 1117.100 518.581, 1126.808 519.599, 1131.652 519.115 C 1134.477 518.833, 1134.999 512.197, 1134.956 477.101 C 1134.932 457.520, 1134.554 439.648, 1134.115 437.385 C 1132.521 429.159, 1123.117 418.142, 1115 414.991 C 1109.815 412.978, 1018.313 412.261, 1015.691 414.212" stroke="none" fill="#1B1B1B" fill-rule="evenodd"/>
</g><g transform="translate(0 656) scale(6.172248803827751)"><path d="M5.07812 2.22656L6.98438 7.875L8.78906 2.22656H7.70312V0.226562H11.9453V2.22656H10.8594L12.7891 7.875L14.6484 2.22656H13.4609V0.226562H18.1875V2.22656H16.9062L13.6406 12.0625H11.4609L9.60938 6.6875L7.85156 12.0625H5.59375L2.23438 2.22656H0.984375V0.226562H6.29688V2.22656H5.07812ZM25.9062 8.44531H19.7812C19.8438 9.07552 20.0599 9.57552 20.4297 9.94531C20.8047 10.3099 21.2865 10.4922 21.875 10.4922C22.526 10.4922 23.1615 10.1693 23.7812 9.52344L25.8125 10.1797C25.3646 10.8516 24.8099 11.3568 24.1484 11.6953C23.487 12.0286 22.7031 12.1953 21.7969 12.1953C20.8906 12.1953 20.0885 12.026 19.3906 11.6875C18.6979 11.3438 18.1589 10.8594 17.7734 10.2344C17.3932 9.60938 17.2031 8.875 17.2031 8.03125C17.2031 7.19792 17.401 6.44271 17.7969 5.76562C18.1979 5.08854 18.737 4.5599 19.4141 4.17969C20.0964 3.79427 20.8359 3.60156 21.6328 3.60156C22.4974 3.60156 23.25 3.80208 23.8906 4.20312C24.5312 4.59896 25.0234 5.16406 25.3672 5.89844C25.7161 6.6276 25.8958 7.47656 25.9062 8.44531ZM21.5078 5.34375C21.0391 5.34375 20.6615 5.47917 20.375 5.75C20.0938 6.02083 19.9167 6.4349 19.8438 6.99219H23.2656C23.1927 6.5026 22.9922 6.10677 22.6641 5.80469C22.3411 5.4974 21.9557 5.34375 21.5078 5.34375ZM35.5938 4.79688C36.6615 4.05208 37.7656 3.67969 38.9062 3.67969C39.5781 3.67969 40.1146 3.78385 40.5156 3.99219C40.9167 4.20052 41.2109 4.53906 41.3984 5.00781C41.5859 5.47656 41.6797 6.10677 41.6797 6.89844V10.1094H43.0391V12H39.0547V7.14844C39.0547 6.33073 38.6849 5.92188 37.9453 5.92188C37.4141 5.92188 36.7865 6.10156 36.0625 6.46094V10.1094H37.4062V12H33.4375V7.23438C33.4375 6.35938 33.0807 5.92188 32.3672 5.92188C31.862 5.92188 31.2318 6.10156 30.4766 6.46094V10.1094H31.8203V12H26.5078V10.1094H27.8516V5.71094H26.5078V3.78906H30.4766V4.47656C31.3411 3.94531 32.2266 3.67969 33.1328 3.67969C34.1901 3.67969 35.0104 4.05208 35.5938 4.79688ZM50.0781 3.60156C50.7812 3.60156 51.4036 3.79688 51.9453 4.1875C52.4922 4.57292 52.9115 5.09115 53.2031 5.74219C53.5 6.39323 53.6484 7.09896 53.6484 7.85938C53.6484 8.625 53.5026 9.33594 53.2109 9.99219C52.9245 10.6484 52.5156 11.1693 51.9844 11.5547C51.4583 11.9349 50.849 12.125 50.1562 12.125C49.2917 12.125 48.4922 11.7682 47.7578 11.0547V12H43.7266V10.1094H45.1484V2.10938H43.7266V0.226562H47.7578V4.73438C48.4193 3.97917 49.1927 3.60156 50.0781 3.60156ZM49.3594 10.0938C49.8594 10.0938 50.25 9.88802 50.5312 9.47656C50.8177 9.0599 50.9609 8.50781 50.9609 7.82031C50.9609 7.13802 50.8177 6.61979 50.5312 6.26562C50.25 5.90625 49.8646 5.72656 49.375 5.72656C48.8646 5.72656 48.4635 5.92969 48.1719 6.33594C47.8854 6.74219 47.7422 7.28125 47.7422 7.95312C47.7422 8.58333 47.888 9.09896 48.1797 9.5C48.4766 9.89583 48.8698 10.0938 49.3594 10.0938ZM59.3281 10.1094V12H54.2578V10.1094H55.5391V2.10938H54.2578V0.226562H58.1641V10.1094H59.3281ZM68.6406 8.44531H62.5156C62.5781 9.07552 62.7943 9.57552 63.1641 9.94531C63.5391 10.3099 64.0208 10.4922 64.6094 10.4922C65.2604 10.4922 65.8958 10.1693 66.5156 9.52344L68.5469 10.1797C68.099 10.8516 67.5443 11.3568 66.8828 11.6953C66.2214 12.0286 65.4375 12.1953 64.5312 12.1953C63.625 12.1953 62.8229 12.026 62.125 11.6875C61.4323 11.3438 60.8932 10.8594 60.5078 10.2344C60.1276 9.60938 59.9375 8.875 59.9375 8.03125C59.9375 7.19792 60.1354 6.44271 60.5312 5.76562C60.9323 5.08854 61.4714 4.5599 62.1484 4.17969C62.8307 3.79427 63.5703 3.60156 64.3672 3.60156C65.2318 3.60156 65.9844 3.80208 66.625 4.20312C67.2656 4.59896 67.7578 5.16406 68.1016 5.89844C68.4505 6.6276 68.6302 7.47656 68.6406 8.44531ZM64.2422 5.34375C63.7734 5.34375 63.3958 5.47917 63.1094 5.75C62.8281 6.02083 62.651 6.4349 62.5781 6.99219H66C65.9271 6.5026 65.7266 6.10677 65.3984 5.80469C65.0755 5.4974 64.6901 5.34375 64.2422 5.34375ZM72.6016 5.71094L73.9766 9.375L75.4297 5.71094H74.3594V3.78906H78.6797V5.71094H77.4922L73.5781 15.6953H70.7109V13.8047H72.2812L72.8203 12.3516L69.8438 5.71094H68.6484V3.78906H73.5781V5.71094H72.6016ZM93.875 1.13281V0.226562H95.875V4.36719H93.875C93.2865 2.8724 92.3047 2.125 90.9297 2.125C90.2474 2.125 89.6406 2.30208 89.1094 2.65625C88.5833 3.01042 88.1719 3.49479 87.875 4.10938C87.5833 4.71875 87.4375 5.39583 87.4375 6.14062C87.4375 6.83854 87.5755 7.47917 87.8516 8.0625C88.1328 8.64062 88.5234 9.10417 89.0234 9.45312C89.5234 9.79688 90.099 9.96875 90.75 9.96875C91.5521 9.96875 92.2474 9.69271 92.8359 9.14062C93.4297 8.58333 93.8281 7.85156 94.0312 6.94531L96.3516 8.04688C95.4766 10.776 93.5365 12.1406 90.5312 12.1406C89.2396 12.1406 88.1094 11.8932 87.1406 11.3984C86.1771 10.9036 85.4349 10.2005 84.9141 9.28906C84.3932 8.3776 84.1328 7.3125 84.1328 6.09375C84.1328 4.94271 84.401 3.90625 84.9375 2.98438C85.474 2.0625 86.2135 1.34115 87.1562 0.820312C88.1042 0.294271 89.1641 0.03125 90.3359 0.03125C91.7578 0.03125 92.9375 0.398438 93.875 1.13281ZM106.156 8.44531H100.031C100.094 9.07552 100.31 9.57552 100.68 9.94531C101.055 10.3099 101.536 10.4922 102.125 10.4922C102.776 10.4922 103.411 10.1693 104.031 9.52344L106.062 10.1797C105.615 10.8516 105.06 11.3568 104.398 11.6953C103.737 12.0286 102.953 12.1953 102.047 12.1953C101.141 12.1953 100.339 12.026 99.6406 11.6875C98.9479 11.3438 98.4089 10.8594 98.0234 10.2344C97.6432 9.60938 97.4531 8.875 97.4531 8.03125C97.4531 7.19792 97.651 6.44271 98.0469 5.76562C98.4479 5.08854 98.987 4.5599 99.6641 4.17969C100.346 3.79427 101.086 3.60156 101.883 3.60156C102.747 3.60156 103.5 3.80208 104.141 4.20312C104.781 4.59896 105.273 5.16406 105.617 5.89844C105.966 6.6276 106.146 7.47656 106.156 8.44531ZM101.758 5.34375C101.289 5.34375 100.911 5.47917 100.625 5.75C100.344 6.02083 100.167 6.4349 100.094 6.99219H103.516C103.443 6.5026 103.242 6.10677 102.914 5.80469C102.591 5.4974 102.206 5.34375 101.758 5.34375ZM115.75 6.76562V10.1094H116.984V12H113.125V6.97656C113.125 6.59115 113.065 6.3125 112.945 6.14062C112.831 5.96354 112.635 5.875 112.359 5.875C111.859 5.875 111.357 6.05469 110.852 6.41406V10.1094H112.133V12H107V10.1094H108.25V5.71094H107V3.78906H110.852V4.5625C111.633 3.97396 112.435 3.67969 113.258 3.67969C114.076 3.67969 114.695 3.9401 115.117 4.46094C115.539 4.97656 115.75 5.74479 115.75 6.76562ZM122.367 3.78906V5.71094H120.852V9.29688C120.852 9.55208 120.901 9.74479 121 9.875C121.099 10 121.284 10.0625 121.555 10.0625C121.779 10.0625 122.049 10.0052 122.367 9.89062V11.7109C121.664 11.987 121.003 12.125 120.383 12.125C119.669 12.125 119.133 11.9453 118.773 11.5859C118.419 11.2214 118.242 10.7083 118.242 10.0469V5.71094H117.203V3.78906H118.242V2.51562L120.852 0.640625V3.78906H122.367ZM130.414 3.69531V6.15625C129.695 6.20312 129.122 6.31771 128.695 6.5C128.273 6.67708 127.945 6.98438 127.711 7.42188C127.482 7.85938 127.367 8.48438 127.367 9.29688V10.1094H129V12H123.242V10.1094H124.75V5.71094H123.32V3.78906H127.148V5.875C127.341 5.24479 127.698 4.72135 128.219 4.30469C128.74 3.88802 129.385 3.67969 130.156 3.67969C130.271 3.67969 130.357 3.6849 130.414 3.69531ZM138.852 7.07031V10.1094H140.18V12H136.242V11.3594C135.497 11.8698 134.753 12.125 134.008 12.125C133.107 12.125 132.385 11.8932 131.844 11.4297C131.302 10.9661 131.031 10.3411 131.031 9.55469C131.031 8.72135 131.333 8.05469 131.938 7.55469C132.547 7.04948 133.354 6.79688 134.359 6.79688C134.708 6.79688 135.018 6.83594 135.289 6.91406C135.565 6.98698 135.883 7.11458 136.242 7.29688V6.64062C136.242 6.22396 136.112 5.89062 135.852 5.64062C135.591 5.39062 135.201 5.26562 134.68 5.26562C134.112 5.26562 133.609 5.48438 133.172 5.92188L131.062 5.53906C131.703 4.2474 133.026 3.60156 135.031 3.60156C136.406 3.60156 137.385 3.88542 137.969 4.45312C138.557 5.01562 138.852 5.88802 138.852 7.07031ZM134.594 10.4922C135.062 10.4922 135.612 10.2109 136.242 9.64844V8.91406C135.68 8.54948 135.164 8.36719 134.695 8.36719C134.32 8.36719 134.034 8.45573 133.836 8.63281C133.638 8.8099 133.539 9.0625 133.539 9.39062C133.539 10.125 133.891 10.4922 134.594 10.4922ZM145.938 10.1094V12H140.867V10.1094H142.148V2.10938H140.867V0.226562H144.773V10.1094H145.938ZM162.211 0.226562H168.227V2.22656H166.703V10H168.227V12H162.289V10H163.711V2.22656H163.438L159.789 12H158.531L154.836 2.22656H154.562V10H156.078V12H151.102V10H152.641V2.22656H151.102V0.226562H157.023L159.602 7.11719L162.211 0.226562ZM176.695 7.07031V10.1094H178.023V12H174.086V11.3594C173.341 11.8698 172.596 12.125 171.852 12.125C170.951 12.125 170.229 11.8932 169.688 11.4297C169.146 10.9661 168.875 10.3411 168.875 9.55469C168.875 8.72135 169.177 8.05469 169.781 7.55469C170.391 7.04948 171.198 6.79688 172.203 6.79688C172.552 6.79688 172.862 6.83594 173.133 6.91406C173.409 6.98698 173.727 7.11458 174.086 7.29688V6.64062C174.086 6.22396 173.956 5.89062 173.695 5.64062C173.435 5.39062 173.044 5.26562 172.523 5.26562C171.956 5.26562 171.453 5.48438 171.016 5.92188L168.906 5.53906C169.547 4.2474 170.87 3.60156 172.875 3.60156C174.25 3.60156 175.229 3.88542 175.812 4.45312C176.401 5.01562 176.695 5.88802 176.695 7.07031ZM172.438 10.4922C172.906 10.4922 173.456 10.2109 174.086 9.64844V8.91406C173.523 8.54948 173.008 8.36719 172.539 8.36719C172.164 8.36719 171.878 8.45573 171.68 8.63281C171.482 8.8099 171.383 9.0625 171.383 9.39062C171.383 10.125 171.734 10.4922 172.438 10.4922ZM183.898 4.07812V3.78906H185.766V6.19531H183.898C183.737 5.61719 183.138 5.32812 182.102 5.32812C181.357 5.32812 180.984 5.53646 180.984 5.95312C180.984 6.13542 181.083 6.27083 181.281 6.35938C181.479 6.44792 181.768 6.52083 182.148 6.57812C183.216 6.71354 184.057 6.90885 184.672 7.16406C185.286 7.41406 185.716 7.72656 185.961 8.10156C186.206 8.47135 186.328 8.92188 186.328 9.45312C186.328 10.3177 186.031 10.9922 185.438 11.4766C184.849 11.9557 184.047 12.1953 183.031 12.1953C182.042 12.1953 181.37 11.9974 181.016 11.6016V12H179.109V9.17188H181.016C181.068 9.5625 181.255 9.86979 181.578 10.0938C181.906 10.3177 182.31 10.4297 182.789 10.4297C183.258 10.4297 183.604 10.3776 183.828 10.2734C184.052 10.1641 184.164 9.97656 184.164 9.71094C184.164 9.52865 184.117 9.38802 184.023 9.28906C183.93 9.1849 183.747 9.09375 183.477 9.01562C183.211 8.9375 182.802 8.84896 182.25 8.75C181.021 8.55729 180.135 8.2474 179.594 7.82031C179.057 7.38802 178.789 6.80729 178.789 6.07812C178.789 5.33333 179.068 4.7474 179.625 4.32031C180.188 3.89323 180.927 3.67969 181.844 3.67969C182.583 3.67969 183.268 3.8125 183.898 4.07812ZM191.25 1.45312C191.25 1.84896 191.107 2.1901 190.82 2.47656C190.539 2.75781 190.201 2.89844 189.805 2.89844C189.409 2.89844 189.07 2.76042 188.789 2.48438C188.508 2.20312 188.367 1.85938 188.367 1.45312C188.367 1.05208 188.508 0.713542 188.789 0.4375C189.07 0.15625 189.409 0.015625 189.805 0.015625C190.19 0.015625 190.526 0.158854 190.812 0.445312C191.104 0.726562 191.25 1.0625 191.25 1.45312ZM187.328 15.6328C187.062 15.6328 186.857 15.625 186.711 15.6094C186.565 15.5938 186.466 15.5859 186.414 15.5859V13.4688C186.523 13.4948 186.685 13.5078 186.898 13.5078C187.503 13.5078 187.917 13.401 188.141 13.1875C188.365 12.974 188.477 12.599 188.477 12.0625V5.71094H187.234V3.78906H191.102V11.8438C191.102 12.7812 190.987 13.5208 190.758 14.0625C190.529 14.6094 190.141 15.0078 189.594 15.2578C189.052 15.5078 188.297 15.6328 187.328 15.6328ZM196.625 1.45312C196.625 1.86979 196.482 2.21615 196.195 2.49219C195.914 2.76302 195.578 2.89844 195.188 2.89844C194.792 2.89844 194.451 2.75781 194.164 2.47656C193.883 2.1901 193.742 1.84896 193.742 1.45312C193.742 1.0625 193.883 0.726562 194.164 0.445312C194.451 0.158854 194.792 0.015625 195.188 0.015625C195.578 0.015625 195.914 0.158854 196.195 0.445312C196.482 0.726562 196.625 1.0625 196.625 1.45312ZM197.68 10.1094V12H192.609V10.1094H193.859V5.71094H192.609V3.78906H196.461V10.1094H197.68ZM208.18 10.1094V12H204.234V11.0234C203.484 11.7578 202.688 12.125 201.844 12.125C201.151 12.125 200.539 11.9401 200.008 11.5703C199.477 11.1953 199.06 10.6823 198.758 10.0312C198.461 9.38021 198.312 8.65625 198.312 7.85938C198.312 7.03646 198.461 6.30208 198.758 5.65625C199.06 5.01042 199.484 4.50781 200.031 4.14844C200.578 3.78385 201.188 3.60156 201.859 3.60156C202.823 3.60156 203.615 3.97396 204.234 4.71875V2.10938H202.938V0.226562H206.836V10.1094H208.18ZM202.617 10.0625C203.128 10.0625 203.526 9.86198 203.812 9.46094C204.104 9.05469 204.25 8.53125 204.25 7.89062C204.25 7.25 204.102 6.72656 203.805 6.32031C203.513 5.91406 203.112 5.71094 202.602 5.71094C202.107 5.71094 201.714 5.91406 201.422 6.32031C201.13 6.72656 200.984 7.24479 200.984 7.875C200.984 8.51042 201.13 9.03385 201.422 9.44531C201.714 9.85677 202.112 10.0625 202.617 10.0625Z" fill="#159778"></path> </g></svg>